<?xml version="1.0" encoding="UTF-8"?>
<svg version="1.1" viewBox="0 0 2048 2048" width="1280" height="1280" xmlns="http://www.w3.org/2000/svg">
<path transform="translate(394,165)" d="m0 0h25l18 4 15 6 12 8 9 8h306l9-8 14-9 16-6 15-3h25l18 4 12 5 11 6 11 9 9 9 9 13 8 16 4 16 1 6v26l-5 19-8 16-8 11-9 10-10 8-14 8-19 7-10 2-16 1-17-2-15-5-16-8-9-7-6-5-78-1 5 24 11 55v4l224-1v-47l1-42 6-11 6-5 10-4h118l10 3 8 7 4 6 2 7v87h90l3-11 12-36v-6l-8-10-15-20-16-21-14-19-16-21-8-14-1-8 2-9 5-8 7-6 6-3 6-1h415l9 2 10 7 5 8 2 6v9l-4 10-7 10-51 68-16 21 2 9 13 40 1 2 68 1 9 4 5 4 6 10 1 4v203l-3 8-8 9-9 4h-172v83h197l11 4 5 4 5 8 81 216 3 9v11l-4 9-6 7-8 4-9 2h-196l-10-3-9-8-8-18-42-105v-3h-10v34l-5 10-5 5-8 5h-101l-9-6-5-6-4-10v-32h-140l-9-2-9-7-5-8-1-4-1-87 2-13 6-8 5-4 9-4h143v-83l-191 1-1 767h84l9 2 8 5 7 10 2 7v117l-3 10-8 9-7 4-6 1h-339l-8-3-7-6-5-9-1-4v-122l5-10 7-7 7-3 5-1h85v-767l-56-1-9-4-5-4-12-16-39-54-2-3-41-1v224l-3 9-9 10-6 3-7 1h-254l-9-3-8-7-5-9-1-5v-223h-32l-10-4-7-6-5-10-1-8v-111l2-8 6-9 6-5 8-3h93l2-12 14-70h-77l-14 11-16 8-14 5-10 2-18 1-15-2-18-6-17-9-13-11-8-9-10-15-6-15-4-18v-25l4-17 6-14 7-11 7-9 10-10 13-9 15-7 15-4z" fill="#010000"/>
<path transform="translate(475,466)" d="m0 0h1098l1 137-1 1-29 1h-637l-5-2-8-12-12-17-14-19-12-17-8-9-9-5-10-1h-352l-3-1v-54z" fill="#FF1409"/>
<path transform="translate(997,657)" d="m0 0h45l9 1 1 1v767l-1 1-31 1h-15l-9-1-1-1v-766z" fill="#FF1409"/>
<path transform="translate(1435,795)" d="m0 0h173l4 5 15 41 15 40 25 66 3 9v5l-28 1h-102l-5-2-7-15-30-75-11-26-6-11-6-5-10-3-29-1-2-1v-26z" fill="#FF1409"/>
<path transform="translate(892,1479)" d="m0 0h256l13 1 1 1 1 55-3 1h-275v-56z" fill="#FF1409"/>
<path transform="translate(1229,273)" d="m0 0h273l15 1-1 4-7 11-9 11-13 18-9 11-2 1-211 1-9-1-7-8-10-14-16-21-8-11v-2z" fill="#FF1409"/>
<path transform="translate(504,246)" d="m0 0h237l9 1 1 11v17l-2 1h-247l-1-1v-26z" fill="#FF1409"/>
<path transform="translate(1264,382)" d="m0 0h204l5 5 6 18 1 8-12 1h-213l-2-1 1-9 6-17 2-4z" fill="#FF1409"/>
<path transform="translate(1353,657)" d="m0 0h28l1 2v219l-4 1h-25l-2-2v-207l1-12z" fill="#FF1409"/>
<path transform="translate(530,657)" d="m0 0h192l1 1 1 12v15l-2 2h-193l-1-1v-27z" fill="#FF1409"/>
<path transform="translate(531,739)" d="m0 0h191l1 1 1 13v14l-3 2h-192l-1-1v-26z" fill="#FF1409"/>
<path transform="translate(530,575)" d="m0 0h192l1 2 1 11v15l-1 1-25 1h-169l-1-1v-26z" fill="#FF1409"/>
<path transform="translate(839,218)" d="m0 0h12l13 4 9 6 7 7 6 12 2 16-2 11-5 10-9 10-8 5-13 4h-13l-11-4-9-6-7-7-6-12-2-6v-16l6-14 7-9 9-6 10-4z" fill="#FF1409"/>
<path transform="translate(400,218)" d="m0 0h12l13 4 9 6 7 7 6 12 2 10-1 14-5 12-9 10-9 6-13 4h-13l-13-5-8-6-7-8-5-10-2-7v-15l5-12 7-9 8-7 8-4z" fill="#FF1409"/>
<path transform="translate(611,328)" d="m0 0h26l8 1 3 7 14 70v6l-1 1-16 1h-55l-1-5 7-32 9-45 2-3z" fill="#FE1409"/>
<path transform="translate(996,356)" d="m0 0h54l2 2 1 54-1 1-10 1h-45l-2-1v-55z" fill="#FF1409"/>
<path transform="translate(1188,795)" d="m0 0h110l1 1 1 7v20l-2 1h-111l-1-2v-18l1-8z" fill="#FF1409"/>
</svg>
