<?xml version="1.0" encoding="UTF-8"?>
<svg version="1.1" viewBox="0 0 2048 1512" width="1280" height="1280" xmlns="http://www.w3.org/2000/svg">
<path transform="translate(395,42)" d="m0 0h24l18 4 12 5 11 6 11 9 2 2 99 1h98l109-1 9-8 12-8 15-6 19-4h23l16 3 13 5 14 8 10 8 9 9 9 13 7 14 4 13 2 11 1 14-2 17-5 16-8 16-11 14-7 7-14 10-15 7-16 5-15 2-18-1-16-4-18-8-11-8-7-6-78-1 5 24 11 55v4l224-1v-27l1-62 6-11 8-6 8-3h118l10 3 8 7 4 6 2 7v87h90l3-11 12-36v-6l-8-10-15-20-16-21-14-19-16-21-6-10-2-4-1-8 2-9 5-8 7-6 6-3 7-1h411l12 2 10 7 5 8 2 6v10l-7 14-13 17-51 68-7 9 2 9 13 40 1 2 68 1 9 4 5 4 6 10 1 4v203l-3 8-7 8-7 4-4 1h-171l1 4-1 79h198l10 4 5 4 6 10 17 46 26 69 39 104 1 4v11l-5 10-4 5-10 5-11 2h-190l-10-2-9-6-6-9-48-120h-8l-1 34-5 10-9 8-5 2h-99l-9-5-6-7-3-6-1-5v-31l-146-1-10-6-6-9-2-5-1-89 2-11 6-8 8-6 5-2h144v-83h-192v768h87l9 3 8 7 5 10 1 4v117l-3 9-7 9-10 5h-345l-8-4-8-9-3-8v-122l5-10 4-5 6-4 6-2h88v-767l-55-1-9-3-5-4-10-13-10-14-26-36-8-11-41-1v224l-3 9-9 10-7 3-24 1h-234l-9-2-8-6-4-5-3-6-1-5v-223h-32l-10-4-7-6-5-10-1-7v-112l2-8 6-9 6-5 8-3h93l2-12 14-70h-77l-14 11-16 8-14 5-19 3h-9l-15-2-18-6-17-9-13-11-8-9-10-15-6-15-4-18v-25l4-17 6-14 7-11 8-10 9-9 15-10 13-6 16-4z" fill="#010000"/>
<path transform="translate(476,341)" d="m0 0h1095l4 3v136l-5 4h-663l-6-4-7-9-8-11-7-10-8-11-13-19-8-11-8-5-3-1-362-1-4-4v-54z" fill="#59B1FE"/>
<path transform="translate(1e3 533)" d="m0 0h39l12 1v768l-5 4h-47l-7-2-2-4v-765l1-1z" fill="#59B1FE"/>
<path transform="translate(1433,671)" d="m0 0h177l5 10 18 48 26 69 10 27 3 6v5l-3 4-3 1h-129l-3-3-11-25-12-30-11-27-8-20-8-19-8-10-5-3-35-1-4-5v-25z" fill="#59B1FE"/>
<path transform="translate(886,1355)" d="m0 0h276l1 1v58h-278v-58z" fill="#59B1FE"/>
<path transform="translate(1216,148)" d="m0 0h300l3 3-1 6-6 7-14 19-13 18-8 8h-222l-7-9-30-40-3-5z" fill="#59B1FE"/>
<path transform="translate(524,121)" d="m0 0h209l17 1 3 3v28l-2 1h-249l-1-2v-28l1-2z" fill="#59B1FE"/>
<path transform="translate(1353,533)" d="m0 0h27l3 3v218l-1 2h-31l-1-3v-218z" fill="#59B1FE"/>
<path transform="translate(1262,258)" d="m0 0h209l3 5 8 23-1 5h-227l-1-2v-7l7-22z" fill="#59B1FE"/>
<path transform="translate(542,451)" d="m0 0h164l18 1v31l-2 1h-189l-4-2-1-2v-28z" fill="#59B1FE"/>
<path transform="translate(530,533)" d="m0 0h191l3 1v31l-3 1h-192l-1-1v-31z" fill="#59B1FE"/>
<path transform="translate(531,615)" d="m0 0h192l1 1v31l-192 1-4-1v-30z" fill="#59B1FE"/>
<path transform="translate(398,94)" d="m0 0h16l9 2 11 6 8 8 7 14 1 6v17l-4 11-6 9-8 7-10 5-13 2-15-1-14-7-7-6-6-10-3-7v-26l8-15 10-9 11-5z" fill="#59B1FE"/>
<path transform="translate(837,94)" d="m0 0h16l9 2 11 6 7 7 5 8 3 7 1 8v12l-2 10-6 10-7 8-16 8-16 1-10-1-15-8-8-9-6-12v-27l7-14 8-8 14-7z" fill="#59B1FE"/>
<path transform="translate(608,203)" d="m0 0h38l2 2 2 11 1 2 2 13 1 2 1 10 2 4 1 11 2 4 1 11 2 4v13l-1 1h-72l-1-2v-7l5-22 2-12 4-18 2-11 3-12z" fill="#59B1FE"/>
<path transform="translate(1187,671)" d="m0 0h113l1 1v26l-4 5h-107l-4-4v-27z" fill="#59B1FE"/>
<path transform="translate(994,232)" d="m0 0h59l1 1v58h-60l-1-3v-54z" fill="#59B1FE"/>
</svg>
