<?xml version="1.0" encoding="UTF-8"?>
<svg version="1.1" viewBox="0 0 2048 2048" width="1280" height="1280" xmlns="http://www.w3.org/2000/svg">
<path transform="translate(397,168)" d="m0 0h26l17 4 15 6 12 8 9 8h306l7-7 16-10 16-6 15-3h26l18 4 19 9 13 10 10 10 9 13 7 14 4 13 2 11v25l-4 17-7 16-10 14-10 11-12 9-16 8-15 5-9 2-15 1-17-2-16-5-16-8-9-7-6-5-78-1 5 24 11 56v3h224v-69l1-21 6-11 7-6 9-3h119l9 3 8 7 4 7 2 6v87l89-1 4-10 12-36v-6l-8-10-15-20-16-21-14-19-16-21-8-14-1-9 3-10 4-6 7-6 6-3 5-1h417l8 2 9 6 6 9 2 6v9l-4 10-10 14-16 21-14 19-16 21-18 24 2 9 13 41 1 1 68 1 9 4 5 4 6 10 1 4v203l-4 9-6 7-7 4-4 1h-171v83h197l11 4 5 4 5 8 54 144 13 35 15 40 2 6v11l-5 10-4 5-9 5-10 2h-194l-8-2-7-4-6-7-9-21-40-100v-3h-10v34l-5 10-9 8-5 2h-100l-9-6-5-6-4-10v-32l-146-1-9-5-6-7-3-7-1-8v-85l3-10 8-9 8-4 3-1h143v-83h-192v768h84l9 2 8 5 7 10 2 8v115l-2 9-7 9-7 5-10 2h-336l-8-3-8-6-6-12v-123l5-10 7-7 11-4h86v-768h-55l-9-3-6-5-12-16-39-54-2-3-41-1v224l-3 9-9 10-7 3-7 1h-253l-9-3-8-7-5-9-1-5v-223h-32l-10-4-7-6-5-10-1-6v-114l3-9 6-8 5-4 7-3 93-1 6-26 11-55h-77l-10 8-13 8-15 6-17 4-16 1-16-2-18-6-17-9-13-11-8-9-10-15-6-15-3-11-2-22 2-16 5-17 8-15 9-12 12-12 15-10 14-6z" fill="#010101"/>
<path transform="translate(479,469)" d="m0 0h1091l6 1v59l-1 77-2 1h-666l-14-19-9-13-14-19-12-17-7-8-8-4-3-1-362-1v-55z" fill="#FDD802"/>
<path transform="translate(999,661)" d="m0 0h56v759l-1 9-52 1-3-1z" fill="#FDD802"/>
<path transform="translate(1438,798)" d="m0 0h174l7 18 17 45 27 72 8 21 1 9-1 1h-132l-5-10-39-98-9-19-2-4-4-2-12-4-30-1z" fill="#FDD802"/>
<path transform="translate(889,1483)" d="m0 0h276v55l-3 2h-272l-1-1z" fill="#FDD802"/>
<path transform="translate(1219,277)" d="m0 0h300l-1 5-14 19-10 13-12 16-2 2-217 1-5-2-8-10-14-19-13-17-4-6z" fill="#FDD802"/>
<path transform="translate(506,250)" d="m0 0h247v28l-237 1-11-1v-24z" fill="#FDD802"/>
<path transform="translate(1266,386)" d="m0 0h207l4 8 4 12 1 9-1 1h-224l-1-2 6-19z" fill="#FDD802"/>
<path transform="translate(1356,661)" d="m0 0h28v220h-28l-1-3v-179z" fill="#FDD802"/>
<path transform="translate(838,222)" d="m0 0h20l10 4 9 6 6 7 5 10 2 6v17l-5 12-7 9-7 6-12 5-3 1h-16l-13-5-9-7-6-8-5-13v-18l5-12 6-8 10-8z" fill="#FDD802"/>
<path transform="translate(406,221)" d="m0 0 13 1 10 4 9 6 7 8 5 11 1 3v18l-5 12-7 9-7 6-12 5-3 1h-15l-14-5-9-7-7-10-4-11v-18l5-12 6-8 9-7 11-5z" fill="#FDD802"/>
<path transform="translate(532,661)" d="m0 0h194v27l-1 1h-193z" fill="#FDD802"/>
<path transform="translate(533,743)" d="m0 0h193v27l-1 1h-193v-26z" fill="#FDD802"/>
<path transform="translate(532,579)" d="m0 0h194v27l-1 1h-193z" fill="#FDD802"/>
<path transform="translate(610,332)" d="m0 0h39l4 18 2 11 5 27 5 23-1 5h-71l1-8 4-18 2-12 5-26 3-15z" fill="#FDD802"/>
<path transform="translate(1e3 359)" d="m0 0h39l16 1v54l-1 2h-55v-56z" fill="#FDD802"/>
<path transform="translate(1191,798)" d="m0 0h111v28h-112v-27z" fill="#FDD802"/>
</svg>
