<?xml version="1.0" encoding="UTF-8"?>
<svg version="1.1" viewBox="0 0 2048 2048" width="1280" height="1280" xmlns="http://www.w3.org/2000/svg">
<path transform="translate(397,168)" d="m0 0h26l17 4 15 6 12 8 9 8h306l7-7 16-10 16-6 15-3h26l18 4 19 9 13 10 10 10 9 13 7 14 4 13 2 11v25l-4 17-7 16-10 14-10 11-12 9-16 8-15 5-9 2-15 1-17-2-16-5-16-8-9-7-6-5-78-1 5 24 11 56v3h224v-69l1-21 6-11 7-6 9-3h119l9 3 8 7 4 7 2 6v87l89-1 4-10 12-36v-6l-8-10-15-20-16-21-14-19-16-21-8-14-1-9 3-10 4-6 7-6 6-3 5-1h417l8 2 9 6 6 9 2 6v9l-4 10-10 14-16 21-14 19-16 21-18 24 2 9 13 41 1 1 68 1 9 4 5 4 6 10 1 4v203l-4 9-6 7-7 4-4 1h-171v83h197l11 4 5 4 5 8 54 144 13 35 15 40 2 6v11l-5 10-4 5-9 5-10 2h-194l-8-2-7-4-6-7-9-21-40-100v-3h-10v34l-5 10-9 8-5 2h-100l-9-6-5-6-4-10v-32l-146-1-9-5-6-7-3-7-1-8v-85l3-10 8-9 8-4 3-1h143v-83h-192v768h84l9 2 8 5 7 10 2 8v115l-2 9-7 9-7 5-10 2h-336l-8-3-8-6-6-12v-123l5-10 7-7 11-4h86v-768h-55l-9-3-6-5-12-16-39-54-2-3-41-1v224l-3 9-9 10-7 3-7 1h-253l-9-3-8-7-5-9-1-5v-223h-32l-10-4-7-6-5-10-1-6v-114l3-9 6-8 5-4 7-3 93-1 6-26 11-55h-77l-10 8-13 8-15 6-17 4-16 1-16-2-18-6-17-9-13-11-8-9-10-15-6-15-3-11-2-22 2-16 5-17 8-15 9-12 12-12 15-10 14-6z"/>
<path transform="translate(493,468)" d="m0 0h1021l62 1v138l-663 1-7-2-12-16-13-19-13-17-9-13-6-8-9-5-9-2-358-1v-53l1-3z" fill="#59B1FD"/>
<path transform="translate(999,660)" d="m0 0h55l2 4-1 765-1 1h-55l-1-1v-767z" fill="#59B1FE"/>
<path transform="translate(1438,798)" d="m0 0h174l4 8 26 70 11 29 15 40 5 13v6l-132 1-4-4-10-23-11-28-14-35-12-29-6-11-7-5-7-2-32-1-1-1v-27z" fill="#59B1FE"/>
<path transform="translate(889,1482)" d="m0 0h275l1 1v56l-1 1h-275l-1-1v-56z" fill="#59B1FE"/>
<path transform="translate(1219,276)" d="m0 0h301l-1 6-33 44-6 7h-221l-8-10-14-19-16-21-3-6z" fill="#59B1FE"/>
<path transform="translate(506,249)" d="m0 0h247l1 1v27l-2 2h-247v-29z" fill="#59B1FE"/>
<path transform="translate(1266,385)" d="m0 0h207l5 10 5 17-1 4h-225l-1-3 6-20 3-7z" fill="#59B1FE"/>
<path transform="translate(1356,660)" d="m0 0h28l1 1v220l-2 1h-26l-2-1v-220z" fill="#59B1FE"/>
<path transform="translate(532,660)" d="m0 0h194v29l-1 1h-193l-1-6v-23z" fill="#59B1FE"/>
<path transform="translate(534,742)" d="m0 0h192v29l-1 1h-192l-1-1-1-17 1-11z" fill="#59B1FE"/>
<path transform="translate(401,221)" d="m0 0h16l12 4 11 8 6 8 5 11 1 4v15l-5 13-6 8-9 8-13 5-5 1h-9l-14-4-10-7-8-9-5-12-1-4v-13l4-12 5-8 9-9 10-5z" fill="#59B1FE"/>
<path transform="translate(840,221)" d="m0 0h16l12 4 11 8 7 10 4 10 1 4v13l-4 12-7 10-9 8-13 5-5 1h-9l-8-2-9-4-8-6-7-8-5-12-1-3v-15l5-13 6-9 10-8z" fill="#59B1FE"/>
<path transform="translate(532,578)" d="m0 0h193l1 1v28h-194l-1-4v-24z" fill="#59B1FE"/>
<path transform="translate(610,331)" d="m0 0h39l1 1 2 13 3 15 1 2 2 13 1 2 2 13 1 2 2 12 1 3v9h-72l-1-2 3-12 7-37 5-24 2-8z" fill="#59B1FE"/>
<path transform="translate(1190,798)" d="m0 0h112l1 1v26l-3 2h-109l-1-1-1-27z" fill="#59B1FE"/>
<path transform="translate(999,359)" d="m0 0h56l1 3-1 54h-56l-1-1v-55z" fill="#59B1FE"/>
</svg>
