<?xml version="1.0" encoding="UTF-8"?>
<svg version="1.1" viewBox="0 0 2048 1512" width="1280" height="1280" xmlns="http://www.w3.org/2000/svg">
<path transform="translate(395,42)" d="m0 0h23l15 3 12 4 15 8 11 9 2 2 98 1h99l109-1 9-8 12-8 15-6 19-4h23l16 3 13 5 14 8 10 8 9 9 9 13 7 14 4 13 2 11 1 14-2 17-5 16-8 16-11 14-7 7-14 10-15 7-16 5-15 2-18-1-16-4-18-8-11-8-7-6-78-1 5 24 11 55v4l224-1v-30l1-59 6-11 8-6 8-3h118l10 3 8 7 4 6 2 7v87h90l3-11 12-36v-6l-8-10-15-20-16-21-14-19-16-21-6-10-2-4-1-8 2-9 5-8 7-6 6-3 7-1h411l12 2 10 7 5 8 2 6v10l-7 14-13 17-51 68-7 9 2 9 13 40 1 2 68 1 9 4 5 4 6 10 1 4v203l-3 8-7 8-7 4-4 1h-171l1 4-1 79h198l10 4 5 4 6 10 17 46 26 69 39 104 1 4v11l-5 10-4 5-10 5-11 2h-190l-10-2-9-6-6-9-48-120h-8l-1 34-5 10-9 8-5 2h-99l-9-5-6-7-3-6-1-5v-31l-146-1-10-6-6-9-2-5-1-89 2-11 6-8 8-6 5-2h144v-83h-192v768h87l9 3 8 7 5 10 1 4v117l-3 9-7 9-10 5h-345l-8-4-8-9-3-8v-122l5-10 4-5 6-4 6-2h88v-767l-55-1-9-3-5-4-10-13-10-14-26-36-8-11-41-1v224l-3 9-9 10-7 3-24 1h-234l-9-2-8-6-4-5-3-6-1-5v-223h-32l-10-4-7-6-5-10-1-7v-112l2-8 6-9 6-5 8-3h93l2-12 14-70h-77l-14 11-16 8-14 5-19 3h-9l-15-2-18-6-17-9-13-11-8-9-10-15-6-15-4-18v-25l4-17 6-14 7-11 8-10 9-9 15-10 13-6 16-4z" fill="#020101"/>
<path transform="translate(474,340)" d="m0 0h1098l4 4v136l-4 4-24 1h-642l-7-5-12-16-10-14-12-17-10-14-7-9-9-6-363-1-3-1-1-2v-57z" fill="#FED804"/>
<path transform="translate(998,531)" d="m0 0h46l10 2 1 1v769l-3 3-35 1h-15l-7-1-2-2-1-12v-754l2-5z" fill="#FED804"/>
<path transform="translate(1435,669)" d="m0 0h175l5 8 15 40 26 69 15 40 2 6v5l-4 4-5 1h-128l-6-9-15-36-30-75-6-9-7-6-5-2-32-1-3-3-1-2v-25l2-4z" fill="#FED804"/>
<path transform="translate(887,1353)" d="m0 0h272l6 2v58l-3 3h-277l-2-2v-59z" fill="#FED804"/>
<path transform="translate(1217,147)" d="m0 0h300l3 4-1 7-6 7-7 9-16 22-7 10-3 3-3 1h-223l-6-7-14-19-12-16-8-11-1-5z" fill="#FED804"/>
<path transform="translate(505,120)" d="m0 0h215l31 1 3 4v27l-3 3-3 1h-245l-4-4v-24l3-7z" fill="#FED804"/>
<path transform="translate(1263,256)" d="m0 0h204l5 2 5 8 5 15v9l-4 3h-224l-3-4v-7l7-20z" fill="#FED804"/>
<path transform="translate(1357,531)" d="m0 0h18l8 1 2 7v213l-2 5-10 2h-15l-7-2-2-4v-216l1-4z" fill="#FED804"/>
<path transform="translate(531,449)" d="m0 0h179l14 1 2 2v29l-3 3-4 1h-187l-6-5v-28l1-2z" fill="#FED804"/>
<path transform="translate(529,531)" d="m0 0h191l5 2 1 1v28l-3 4-10 1h-183l-4-4v-29z" fill="#FED804"/>
<path transform="translate(532,613)" d="m0 0h189l5 3v28l-3 4-192 1-3-1-2-3v-26l4-5z" fill="#FED804"/>
<path transform="translate(838,92)" d="m0 0h14l13 4 10 6 7 7 6 12 3 12v10l-4 13-6 11-8 7-12 6-6 2h-20l-13-5-10-7-6-9-5-13-1-5v-11l3-12 7-13 8-7 12-6z" fill="#FED804"/>
<path transform="translate(400,92)" d="m0 0h13l13 4 9 5 6 5 6 10 4 10 1 5v13l-3 10-7 13-9 8-11 5-6 2h-20l-13-5-10-7-6-9-5-13-1-6v-9l3-12 6-12 4-5 11-7 10-4z" fill="#FED804"/>
<path transform="translate(609,202)" d="m0 0h33l6 1 3 9 14 69v8l-4 4h-71l-3-3v-7l6-28 9-44 4-8z" fill="#FED804"/>
<path transform="translate(1186,669)" d="m0 0h114l2 2 1 5v21l-3 5-3 2h-108l-5-5v-25z" fill="#FED804"/>
<path transform="translate(996,230)" d="m0 0h53l5 2 1 1v57l-4 3h-56l-2-2-1-7v-48l2-5z" fill="#FED804"/>
</svg>
