<?xml version="1.0" encoding="UTF-8"?>
<svg version="1.1" viewBox="0 0 2048 2048" width="1280" height="1280" xmlns="http://www.w3.org/2000/svg">
<path transform="translate(397,168)" d="m0 0h26l17 4 15 6 12 8 9 8h306l7-7 16-10 16-6 15-3h26l18 4 19 9 13 10 10 10 9 13 7 14 4 13 2 11v25l-4 17-7 16-10 14-10 11-12 9-16 8-15 5-9 2-15 1-17-2-16-5-16-8-9-7-6-5-78-1 5 24 11 56v3h224v-69l1-21 6-11 7-6 9-3h119l9 3 8 7 4 7 2 6v87l89-1 4-10 12-36v-6l-8-10-15-20-16-21-14-19-16-21-8-14-1-9 3-10 4-6 7-6 6-3 5-1h417l8 2 9 6 6 9 2 6v9l-4 10-10 14-16 21-14 19-16 21-18 24 2 9 13 41 1 1 68 1 9 4 5 4 6 10 1 4v203l-4 9-6 7-7 4-4 1h-171v83h197l11 4 5 4 5 8 54 144 13 35 15 40 2 6v11l-5 10-4 5-9 5-10 2h-194l-8-2-7-4-6-7-9-21-40-100v-3h-10v34l-5 10-9 8-5 2h-100l-9-6-5-6-4-10v-32l-146-1-9-5-6-7-3-7-1-8v-85l3-10 8-9 8-4 3-1h143v-83h-192v768h84l9 2 8 5 7 10 2 8v115l-2 9-7 9-7 5-10 2h-336l-8-3-8-6-6-12v-123l5-10 7-7 11-4h86v-768h-55l-9-3-6-5-12-16-39-54-2-3-41-1v224l-3 9-9 10-7 3-7 1h-253l-9-3-8-7-5-9-1-5v-223h-32l-10-4-7-6-5-10-1-6v-114l3-9 6-8 5-4 7-3 93-1 6-26 11-55h-77l-10 8-13 8-15 6-17 4-16 1-16-2-18-6-17-9-13-11-8-9-10-15-6-15-3-11-2-22 2-16 5-17 8-15 9-12 12-12 15-10 14-6z" fill="#010000"/>
<path transform="translate(478,469)" d="m0 0h1098v137l-1 1-164 1h-498l-7-2-10-13-11-16-14-19-12-17-9-10-8-4-5-1h-351l-9-1v-54z" fill="#FE1509"/>
<path transform="translate(1e3 660)" d="m0 0h45l9 1 1 1v767l-1 1h-55l-1-1v-767z" fill="#FE1509"/>
<path transform="translate(1438,798)" d="m0 0h173l4 6 9 24 26 70 17 45 6 16v5l-127 1-7-1-3-5-10-23-11-28-12-30-12-29-6-12-7-6-9-3-29-1-3-1v-27z" fill="#FE1509"/>
<path transform="translate(899,1482)" d="m0 0h264l2 2 1 54-4 2h-273l-1-1v-55l1-1z" fill="#FE1509"/>
<path transform="translate(1232,276)" d="m0 0h276l12 1-2 6-12 16-14 19-11 14-2 1h-220l-9-11-28-38-4-5v-2z" fill="#FE1509"/>
<path transform="translate(508,249)" d="m0 0h226l19 1 1 28-3 1h-246l-1-1v-20l1-8z" fill="#FE1509"/>
<path transform="translate(1268,385)" d="m0 0h201l5 2 4 8 5 17-1 4-17 1h-202l-7-1 1-9 6-17 2-4z" fill="#FE1509"/>
<path transform="translate(1356,660)" d="m0 0h28l1 8v212l-1 1-8 1h-19l-3-2v-207l1-12z" fill="#FE1509"/>
<path transform="translate(533,660)" d="m0 0h191l2 2v27l-2 1h-192l-1-1v-27z" fill="#FE1509"/>
<path transform="translate(534,742)" d="m0 0h191l1 2v27l-12 1h-182l-1-1v-26z" fill="#FE1509"/>
<path transform="translate(533,578)" d="m0 0h191l2 2 1 15v11l-1 1-38 1h-155l-2-1v-27z" fill="#FE1509"/>
<path transform="translate(842,221)" d="m0 0h12l15 5 9 7 6 7 4 8 2 7v17l-4 12-8 10-9 7-11 4-5 1h-12l-13-5-8-6-8-9-5-12-1-3v-16l6-14 7-9 8-6 11-4z" fill="#FE1509"/>
<path transform="translate(403,221)" d="m0 0h12l13 4 9 6 7 7 5 10 2 7v17l-3 9-4 7-8 9-8 5-8 3-6 1h-12l-13-5-8-6-7-8-6-13-1-4v-15l5-12 7-9 8-7 8-4z" fill="#FE1509"/>
<path transform="translate(612,331)" d="m0 0h35l3 5 14 69 1 10-1 1-21 1h-42l-9-1 1-7 15-74z" fill="#FE1509"/>
<path transform="translate(999,359)" d="m0 0h54l2 2v55l-13 1h-38l-6-2v-54z" fill="#FE1509"/>
<path transform="translate(1191,798)" d="m0 0h110l1 1 1 9v18l-13 1h-99l-2-2v-18l1-8z" fill="#FE1509"/>
</svg>
